<svg width="313" height="269" viewBox="0 0 313 269" fill="none" xmlns="http://www.w3.org/2000/svg">
<path d="M119.087 239.138C119.035 239.236 118.991 239.337 118.955 239.442C117.687 242.538 117.676 246.405 117.94 249.684C118.61 257.631 120.579 265.183 129.359 267.081C133.005 267.956 136.827 267.741 140.352 266.461C142.099 265.809 143.68 264.776 144.98 263.439C146.281 262.101 147.269 260.492 147.873 258.727C148.332 256.982 148.554 255.183 148.532 253.378C148.661 248.939 148.661 244.504 148.532 240.071C148.566 238.773 148.36 237.479 147.923 236.255C147.421 235.242 146.687 234.363 145.78 233.687C144.874 233.012 143.82 232.56 142.706 232.368C140.472 232 138.187 232.066 135.977 232.56C132.168 233.225 128.418 234.189 124.761 235.443C122.447 236.235 120.153 236.925 119.087 239.138Z" fill="#231F20"/>
<path d="M134.079 268.055C132.464 268.05 130.855 267.873 129.278 267.527C120.021 265.497 118.113 257.377 117.453 249.684C117.078 245.258 117.453 241.838 118.468 239.209C118.468 239.097 118.56 238.985 118.61 238.874C119.717 236.59 122.011 235.829 124.233 235.047L124.568 234.925C128.249 233.665 132.023 232.694 135.855 232.023C138.13 231.522 140.478 231.457 142.777 231.83C143.975 232.033 145.106 232.52 146.077 233.249C147.048 233.978 147.831 234.929 148.36 236.022C148.817 237.301 149.037 238.652 149.01 240.011C149.162 244.446 149.172 248.932 149.01 253.358C149.028 255.207 148.799 257.05 148.329 258.839C147.705 260.677 146.678 262.354 145.325 263.746C143.971 265.138 142.324 266.212 140.504 266.888C138.454 267.676 136.275 268.072 134.079 268.055ZM119.544 239.31L119.422 239.594C118.407 242.061 118.103 245.339 118.458 249.602C119.118 257.306 120.904 264.695 129.491 266.543C133.034 267.402 136.752 267.197 140.179 265.954C141.859 265.333 143.38 264.346 144.632 263.064C145.884 261.783 146.835 260.239 147.416 258.544C147.861 256.842 148.073 255.087 148.045 253.327C148.177 248.922 148.167 244.456 148.045 240.051C148.088 238.815 147.895 237.582 147.477 236.417C147.005 235.478 146.32 234.662 145.475 234.037C144.631 233.411 143.651 232.992 142.615 232.814C140.442 232.476 138.226 232.545 136.078 233.017C132.288 233.68 128.555 234.637 124.913 235.88L124.578 236.001C122.467 236.722 120.468 237.402 119.503 239.31H119.544Z" fill="#231F20"/>
<path d="M231.997 28.9035L171.27 14.6268C166.174 13.4285 161.071 16.5889 159.872 21.6856L137.99 114.761C136.792 119.858 139.952 124.961 145.049 126.159L205.775 140.436C210.872 141.634 215.975 138.474 217.174 133.377L239.056 40.3016C240.254 35.2049 237.093 30.1018 231.997 28.9035Z" fill="#282A36"/>
<path d="M120.427 52.743C120.427 52.743 115.088 76.1692 118.712 85.1317C122.335 94.0941 152.998 81.5081 152.998 81.5081C152.998 81.5081 131.856 128.756 121.95 154.669C112.043 180.582 121.95 227.069 121.95 227.069C121.95 227.069 113.18 250.313 119.28 256.403C125.38 262.493 144.33 265.172 147 255.266C149.669 245.36 149.953 225.831 149.953 225.831C149.953 225.831 147.091 190.874 156.622 174.066C166.153 157.258 175.724 140.571 175.724 140.571L180.434 153.614C180.434 153.614 159.667 239.259 166.153 242.304C172.639 245.349 219.116 227.079 214.162 213.346C209.209 199.614 197.435 208.018 197.435 208.018C197.435 208.018 227.51 174.096 226.759 157.339C226.007 140.581 210.772 116.566 210.772 116.566L217.634 92.5615C217.634 92.5615 256.874 135.191 272.88 113.136L265.643 87.2226C265.643 87.2226 258.021 95.6065 248.875 86.0756C239.73 76.5448 240.065 55.2196 206.57 46.45C173.075 37.6804 120.427 52.743 120.427 52.743Z" fill="#282A36"/>
<path d="M135.236 262.351C129.146 262.351 122.325 260.168 118.925 256.768C112.835 250.678 120.63 229.15 121.422 227.029C120.823 224.126 111.901 179.517 121.422 154.487C130.374 131.091 148.705 89.8007 151.983 82.4216C147.101 84.3298 128.506 91.1709 121.036 88.0244C120.421 87.7848 119.859 87.4255 119.383 86.9673C118.907 86.5091 118.527 85.9611 118.265 85.355C114.631 76.3621 119.737 53.6261 119.96 52.672C119.979 52.5828 120.022 52.5007 120.085 52.4344C120.148 52.3682 120.227 52.3205 120.315 52.2964C120.843 52.1442 173.42 37.3049 206.692 46.0034C231.123 52.3878 237.69 65.2884 242.968 75.7328C244.998 79.7217 246.734 83.1727 249.23 85.7711C252.072 88.7248 255.026 90.1965 258.031 90.1661C260.759 90.024 263.335 88.8695 265.257 86.9282C265.315 86.8583 265.392 86.8067 265.478 86.7796C265.565 86.7526 265.657 86.7513 265.745 86.776C265.834 86.7951 265.916 86.8383 265.982 86.901C266.048 86.9636 266.096 87.0433 266.12 87.1312L273.357 113.034C273.377 113.108 273.381 113.186 273.367 113.262C273.353 113.337 273.322 113.409 273.276 113.47C271.978 115.386 270.253 116.973 268.235 118.106C266.218 119.238 263.965 119.886 261.654 119.997C253.95 120.444 244.115 116.028 232.453 106.802C227.297 102.714 222.421 98.2852 217.857 93.546L211.31 116.485C212.751 118.809 226.535 141.403 227.256 157.308C227.905 171.843 206.255 198.456 199.648 206.211C202.167 204.969 205.049 204.674 207.768 205.379C210.813 206.333 213.157 208.962 214.68 213.174C215.949 216.706 214.203 220.685 209.473 224.989C197.587 235.819 170.903 245.106 165.97 242.761C164.772 242.203 161.565 240.731 170.406 196.721C174.557 176.106 179.48 155.583 179.947 153.644L175.663 141.769C173.511 145.534 165.29 159.947 157.099 174.35C147.761 190.793 150.471 225.425 150.501 225.78C150.532 226.135 150.187 245.542 147.527 255.398C146.685 258.524 144.229 260.717 140.422 261.732C138.728 262.165 136.984 262.373 135.236 262.351V262.351ZM152.998 81.0006C153.067 80.999 153.134 81.0118 153.197 81.038C153.26 81.0642 153.317 81.1034 153.364 81.1529C153.433 81.226 153.48 81.3177 153.498 81.4169C153.516 81.516 153.504 81.6183 153.465 81.7111C153.252 82.1882 132.211 129.244 122.416 154.852C112.622 180.46 122.345 226.501 122.416 226.917C122.447 227.009 122.447 227.109 122.416 227.201C122.335 227.435 113.84 250.211 119.635 256.007C123.766 260.138 133.734 262.422 140.138 260.717C142.524 260.077 145.569 258.585 146.512 255.093C149.131 245.36 149.446 225.963 149.446 225.77C149.005 219.25 148.927 212.71 149.212 206.181C149.649 196.244 151.242 182.562 156.185 173.812C165.706 157.044 175.278 140.317 175.278 140.317C175.327 140.233 175.399 140.165 175.485 140.12C175.571 140.076 175.668 140.056 175.765 140.063C175.861 140.075 175.952 140.112 176.029 140.171C176.106 140.23 176.165 140.308 176.201 140.398L180.911 153.441C180.936 153.538 180.936 153.639 180.911 153.736C172.913 186.693 161.9 239.757 166.346 241.848C170.527 243.817 196.653 235.24 208.732 224.248C213.127 220.188 214.822 216.635 213.665 213.519C212.254 209.621 210.153 207.206 207.412 206.343C202.764 204.881 197.719 208.373 197.668 208.424C197.57 208.513 197.441 208.559 197.308 208.552C197.176 208.545 197.052 208.486 196.963 208.388C196.874 208.29 196.828 208.16 196.835 208.028C196.841 207.896 196.9 207.772 196.999 207.683C197.293 207.338 226.921 173.731 226.19 157.359C225.459 140.987 210.457 117.074 210.305 116.82C210.265 116.761 210.239 116.694 210.229 116.624C210.218 116.554 210.224 116.482 210.244 116.414L217.106 92.46C217.131 92.3743 217.178 92.2965 217.242 92.2343C217.306 92.172 217.385 92.1274 217.471 92.1047C217.559 92.0848 217.65 92.0884 217.735 92.1152C217.821 92.1419 217.898 92.1908 217.958 92.257C218.212 92.531 243.729 120.027 261.603 118.992C263.725 118.891 265.795 118.306 267.655 117.28C269.515 116.254 271.115 114.815 272.332 113.075L265.379 88.2071C263.362 90.0232 260.773 91.0755 258.061 91.1811H257.919C254.671 91.1811 251.514 89.5977 248.51 86.4715C245.911 83.7716 244.044 80.0871 242.075 76.1895C236.888 65.9685 230.443 53.2505 206.448 46.9778C174.709 38.6853 125.137 52.0528 120.894 53.1795C120.295 55.9098 115.91 76.8087 119.219 84.9794C119.434 85.479 119.749 85.9289 120.145 86.3009C120.542 86.6729 121.011 86.9591 121.523 87.1414C129.582 90.5416 152.623 81.1732 152.846 81.0514C152.894 81.0258 152.945 81.0086 152.998 81.0006Z" fill="#231F20"/>
<path d="M257.452 106.67C257.658 109.188 258.454 111.622 259.776 113.775C260.44 114.85 261.327 115.769 262.378 116.47C263.429 117.171 264.619 117.636 265.866 117.835C267.117 118.001 268.388 117.775 269.504 117.188C270.621 116.601 271.527 115.681 272.098 114.557C272.466 113.634 272.675 112.656 272.718 111.664C273.17 106.538 272.519 101.374 270.809 96.52C270.236 94.6657 269.305 92.9416 268.069 91.445C260.243 82.7261 256.863 101.524 257.452 106.67Z" fill="#231F20"/>
<path d="M266.597 118.332C266.337 118.348 266.076 118.348 265.816 118.332C264.497 118.127 263.237 117.642 262.121 116.908C261.006 116.174 260.061 115.21 259.35 114.08C257.979 111.862 257.158 109.35 256.955 106.751C256.478 102.61 258.295 91.0492 262.781 89.0395C264.557 88.2478 266.455 88.9684 268.445 91.2014C269.718 92.7419 270.683 94.5132 271.287 96.4185C273 101.3 273.66 106.489 273.225 111.644C273.17 112.687 272.947 113.715 272.566 114.689C272.019 115.799 271.167 116.732 270.111 117.377C269.054 118.022 267.835 118.354 266.597 118.332V118.332ZM264.182 89.7094C263.832 89.7051 263.485 89.7779 263.167 89.9225C259.31 91.648 257.472 102.651 257.919 106.599C258.112 109.038 258.881 111.396 260.162 113.481C260.792 114.487 261.629 115.347 262.618 116.004C263.607 116.66 264.725 117.098 265.897 117.287C267.048 117.439 268.218 117.228 269.243 116.682C270.268 116.136 271.096 115.282 271.611 114.242C271.954 113.374 272.149 112.454 272.19 111.522C272.618 106.491 271.975 101.426 270.302 96.6621C269.746 94.8797 268.85 93.2218 267.663 91.78C266.455 90.43 265.258 89.7094 264.182 89.7094Z" fill="#231F20"/>
<path d="M134.373 68.4553C138.281 67.826 141.478 65.0144 143.904 61.8578C145.197 60.3686 146.004 58.52 146.218 56.5595C146.227 55.3033 145.828 54.0781 145.081 53.0679C144.335 52.0576 143.28 51.3168 142.077 50.9567C140.335 50.6305 138.541 50.7174 136.839 51.2104C131.907 52.2254 126.618 52.6314 122.02 54.8137C117.128 57.1279 119.99 61.4416 123.035 64.3953C125.888 67.085 130.374 69.115 134.373 68.4553Z" fill="#231F20"/>
<path d="M132.82 69.115C129.023 68.959 125.413 67.4214 122.67 64.7911C120.721 62.9235 118.488 60.1729 118.894 57.6861C119.061 56.9439 119.413 56.2559 119.917 55.6862C120.421 55.1165 121.061 54.6837 121.777 54.428C125.271 52.9631 128.949 51.983 132.709 51.5149C134.028 51.2916 135.398 51.0582 136.708 50.7841C138.487 50.2748 140.361 50.1914 142.179 50.5405C143.493 50.9225 144.645 51.7251 145.459 52.8252C146.273 53.9253 146.704 55.2621 146.685 56.6305C146.477 58.6995 145.633 60.6531 144.269 62.2232C142.239 64.9231 138.849 68.3132 134.424 69.0237C133.892 69.0933 133.356 69.1238 132.82 69.115V69.115ZM140.311 51.2307C139.175 51.2709 138.046 51.4273 136.941 51.6976C135.612 51.9717 134.241 52.2051 132.881 52.4386C129.268 53.0577 125.522 53.687 122.214 55.2501C121.65 55.4468 121.145 55.7795 120.741 56.2186C120.337 56.6577 120.048 57.1897 119.899 57.7673C119.544 59.9699 121.929 62.6292 123.381 64.0197C125.908 66.4456 130.262 68.5974 134.272 67.9478C138.332 67.288 141.539 64.1009 143.478 61.5431C144.693 60.1323 145.457 58.3891 145.67 56.5392C145.672 55.4006 145.307 54.2917 144.629 53.3773C143.95 52.463 142.995 51.792 141.905 51.4642C141.385 51.3228 140.849 51.2478 140.311 51.2409V51.2307Z" fill="#231F20"/>
<path d="M142.138 56.9351C142.828 56.4276 156.622 52.7431 156.622 47.0185C156.622 41.2939 143.64 44.9276 143.64 44.9276C143.64 44.9276 146.147 23.4401 143.092 22.4251C140.037 21.4101 137.185 30.6161 137.377 39.6801C137.377 39.6801 137.57 24.9727 133.947 25.6122C130.323 26.2516 130.902 43.0093 130.902 43.0093C130.902 43.0093 129.755 27.3884 124.994 29.8143C120.234 32.2401 122.518 44.1055 122.518 44.1055C122.518 44.1055 121.757 31.3368 118.894 34.9705C116.032 38.6042 118.712 53.8901 120.234 56.9351C121.757 59.9801 133.378 63.4108 142.138 56.9351Z" fill="#282A36"/>
<path d="M130.638 61.1067C128.988 61.111 127.343 60.9236 125.736 60.5484C122.752 59.8379 120.468 58.5184 119.778 57.1583C118.174 53.9509 115.433 38.5939 118.499 34.7065C119.189 33.8336 119.818 33.793 120.214 33.925C120.772 34.0975 121.229 34.7573 121.594 35.6606C121.879 33.0013 122.741 30.4841 124.761 29.4285C125.118 29.2237 125.522 29.1159 125.934 29.1159C126.345 29.1159 126.749 29.2237 127.106 29.4285C128.74 30.342 129.786 33.3159 130.435 36.2696C130.669 31.3063 131.45 25.5614 133.866 25.1046C134.129 25.0559 134.4 25.069 134.657 25.143C134.914 25.217 135.151 25.3498 135.348 25.5309C136.474 26.485 137.104 29.0225 137.459 31.7021C138.21 27.2463 139.611 23.5821 141.275 22.3641C141.539 22.1295 141.859 21.9678 142.205 21.8948C142.55 21.8218 142.908 21.8402 143.244 21.9479C146.289 22.902 144.899 38.3909 144.259 44.2779C146.482 43.7298 153.141 42.3393 155.881 44.4302C156.286 44.7306 156.613 45.125 156.832 45.5794C157.051 46.0337 157.157 46.5345 157.14 47.0388C157.14 52.1138 147.761 55.443 143.762 56.864C143.173 57.0771 142.575 57.2903 142.443 57.3613C139.015 59.8508 134.874 61.1646 130.638 61.1067ZM119.869 34.8791C119.737 34.8791 119.524 35.0516 119.29 35.3358C116.57 38.7868 119.23 53.7885 120.681 56.6508C121.138 57.5542 122.944 58.7925 125.969 59.5131C128.679 60.1649 131.498 60.2304 134.235 59.7052C136.973 59.1801 139.567 58.0765 141.844 56.4681V56.4681C142.348 56.2135 142.875 56.0063 143.417 55.849C146.888 54.6107 156.115 51.3221 156.115 46.9677C156.133 46.6196 156.064 46.2724 155.916 45.9571C155.767 45.6419 155.542 45.3684 155.262 45.161C152.41 42.9991 143.884 45.3335 143.803 45.364C143.723 45.3862 143.638 45.3883 143.557 45.3702C143.476 45.3521 143.4 45.3144 143.337 45.2602C143.274 45.2061 143.225 45.1372 143.195 45.0598C143.164 44.9823 143.154 44.8985 143.163 44.8159C144.33 34.6659 144.584 23.3893 142.94 22.8818C142.755 22.8299 142.561 22.826 142.374 22.8704C142.188 22.9148 142.016 23.006 141.874 23.1355C139.946 24.587 137.997 30.7886 137.885 38.0662C137.885 38.8477 137.885 39.4161 137.885 39.6394C137.883 39.7732 137.828 39.9008 137.734 39.9954C137.639 40.09 137.512 40.1443 137.378 40.1469V40.1469C137.246 40.1444 137.12 40.0915 137.025 39.9991C136.931 39.9066 136.875 39.7816 136.87 39.6496C136.87 39.1488 136.87 38.6515 136.87 38.1575C136.809 34.3716 136.353 27.6827 134.698 26.2617C134.61 26.182 134.505 26.1233 134.39 26.0899C134.276 26.0566 134.156 26.0493 134.038 26.0689C131.836 26.4546 131.176 36.2189 131.41 42.9585C131.41 43.0931 131.356 43.2221 131.261 43.3173C131.166 43.4125 131.037 43.466 130.902 43.466C130.767 43.466 130.638 43.4125 130.543 43.3173C130.448 43.2221 130.395 43.0931 130.395 42.9585C130.171 39.9135 129.045 31.5397 126.619 30.1898C126.408 30.0657 126.168 30.0003 125.923 30.0003C125.679 30.0003 125.439 30.0657 125.228 30.1898C122.741 31.489 122.356 35.7012 122.498 39.1319C122.812 41.0705 122.965 43.0295 123.026 44.0039C123.032 44.132 122.989 44.2577 122.906 44.3556C122.823 44.4535 122.706 44.5164 122.579 44.5317C122.516 44.5418 122.451 44.5393 122.389 44.5244C122.326 44.5094 122.267 44.4823 122.216 44.4446C122.164 44.4069 122.12 44.3593 122.086 44.3046C122.053 44.2499 122.031 44.1891 122.021 44.1257C121.733 42.5258 121.553 40.9083 121.483 39.2842C121.087 36.8583 120.519 34.94 119.92 34.7573L119.869 34.8791Z" fill="#231F20"/>
<path d="M262.263 96.449C262.558 95.6472 262.06 81.3763 267.531 79.7117C273.002 78.0471 273.306 91.4958 273.306 91.4958C273.306 91.4958 293.18 82.848 294.977 85.487C296.773 88.126 288.887 93.5258 280.147 95.9821C280.147 95.9821 294.165 91.5161 294.611 95.16C295.058 98.8038 278.848 103.148 278.848 103.148C278.848 103.148 294.124 99.6869 293.14 104.965C292.155 110.243 280.198 111.501 280.198 111.501C280.198 111.501 292.632 108.507 290.003 112.303C287.374 116.099 272.007 117.977 268.688 117.378C265.369 116.779 258.619 106.721 262.263 96.449Z" fill="#282A36"/>
<path d="M270.363 118.018C269.762 118.026 269.162 117.989 268.566 117.906C267.044 117.642 265.136 115.876 263.583 113.196C262.446 111.258 258.954 104.305 261.786 96.2866C261.786 96.1445 261.847 95.505 261.878 94.8859C262.07 90.6432 262.537 80.6759 267.379 79.2244C267.857 79.0593 268.369 79.0127 268.869 79.0887C269.369 79.1647 269.844 79.3611 270.251 79.6609C273.043 81.6909 273.652 88.4609 273.784 90.7345C279.183 88.4102 293.586 82.5536 295.393 85.2028C295.593 85.4979 295.715 85.839 295.747 86.1942C295.779 86.5493 295.72 86.9067 295.576 87.2328C294.865 89.1816 291.79 91.5871 287.75 93.607C290.409 93.1604 293.028 93.0284 294.266 93.8201C294.497 93.9579 294.692 94.1466 294.838 94.3719C294.984 94.5971 295.077 94.8528 295.109 95.1193C295.403 97.5452 290.145 99.971 285.466 101.636C288.511 101.402 291.627 101.534 292.977 102.833C293.274 103.117 293.491 103.473 293.607 103.867C293.722 104.26 293.733 104.678 293.637 105.076C293.221 107.32 291.069 108.873 288.562 109.928C288.938 109.918 289.312 109.984 289.661 110.124C290.01 110.263 290.327 110.473 290.592 110.74C290.825 111.085 290.978 111.694 290.338 112.608C287.943 116.15 275.722 118.018 270.363 118.018ZM268.485 80.0669C268.227 80.0693 267.97 80.1103 267.724 80.1887C263.562 81.4574 263.106 91.242 262.943 94.9265C262.954 95.492 262.903 96.057 262.791 96.6114V96.6114C260.091 104.224 263.42 110.821 264.506 112.679C266.08 115.369 267.795 116.739 268.79 116.911C271.987 117.449 287.121 115.622 289.638 112.009C289.861 111.674 289.963 111.4 289.881 111.288C289.526 110.771 287.537 110.781 285.091 111.106C283.516 111.511 281.915 111.809 280.3 111.999C280.172 112.013 280.044 111.978 279.942 111.901C279.84 111.823 279.772 111.709 279.752 111.583C279.73 111.457 279.756 111.327 279.826 111.22C279.896 111.112 280.003 111.035 280.127 111.004C281.081 110.781 282.99 110.354 284.949 110.091C288.257 109.228 292.186 107.624 292.693 104.873C292.758 104.638 292.758 104.389 292.694 104.153C292.63 103.918 292.503 103.704 292.328 103.534C290.298 101.605 282.035 102.955 279.011 103.635C278.883 103.666 278.748 103.645 278.636 103.576C278.524 103.508 278.443 103.397 278.412 103.27C278.395 103.206 278.391 103.14 278.4 103.076C278.409 103.011 278.43 102.948 278.463 102.891C278.496 102.835 278.54 102.785 278.592 102.746C278.644 102.706 278.704 102.677 278.767 102.661C285.324 100.905 294.429 97.4335 294.155 95.2208C294.138 95.1041 294.096 94.9925 294.031 94.8942C293.966 94.7958 293.88 94.7133 293.779 94.6524C291.932 93.475 285.405 94.9874 281.761 96.0328L280.34 96.4693C280.206 96.5083 280.061 96.4923 279.938 96.4247C279.816 96.3571 279.725 96.2436 279.686 96.109C279.647 95.9744 279.663 95.8298 279.73 95.707C279.798 95.5842 279.912 95.4933 280.046 95.4543L281.548 95.0077C288.491 92.7747 293.85 89.0902 294.672 86.8268C294.755 86.6535 294.792 86.4624 294.781 86.2709C294.771 86.0794 294.712 85.8936 294.611 85.7306C293.647 84.3197 282.929 87.8418 273.56 91.9119C273.484 91.9451 273.402 91.9592 273.319 91.9531C273.237 91.9469 273.157 91.9207 273.087 91.8766C273.017 91.8326 272.959 91.7721 272.917 91.7004C272.876 91.6287 272.853 91.548 272.85 91.4653C272.85 91.374 272.606 82.5333 269.703 80.4424C269.348 80.1897 268.921 80.0581 268.485 80.0669V80.0669Z" fill="#231F20"/>
<path d="M212.752 109.482C212.752 109.482 198.704 112.608 190.584 108.081L187.722 116.201C187.722 116.201 205.159 121.631 214.112 117.49L212.752 109.482Z" fill="#231F20"/>
<path d="M205.271 119.591C199.269 119.412 193.318 118.443 187.569 116.708C187.442 116.665 187.336 116.574 187.275 116.455C187.225 116.327 187.225 116.186 187.275 116.059L190.137 107.939C190.16 107.869 190.199 107.806 190.25 107.753C190.301 107.7 190.363 107.66 190.432 107.634C190.499 107.604 190.571 107.588 190.645 107.588C190.718 107.588 190.791 107.604 190.858 107.634C198.714 112.009 212.538 109.005 212.67 108.974C212.806 108.945 212.949 108.97 213.066 109.045C213.178 109.125 213.255 109.245 213.279 109.38L214.69 117.429C214.708 117.539 214.69 117.651 214.639 117.75C214.588 117.849 214.506 117.928 214.406 117.977C211.509 119.152 208.396 119.702 205.271 119.591ZM188.381 115.896C191.244 116.719 205.636 120.565 213.594 117.216L212.346 110.111C209.747 110.629 198.298 112.588 190.868 108.842L188.381 115.896Z" fill="#231F20"/>
<path d="M177.582 104.366C177.582 104.366 153.577 95.8196 147.862 91.0796L142.716 100.215C142.716 100.215 167.716 111.38 175.298 111.836L177.582 104.366Z" fill="#231F20"/>
<path d="M175.298 112.303C167.716 111.877 143.559 101.138 142.534 100.641C142.408 100.576 142.311 100.468 142.26 100.336C142.232 100.272 142.218 100.203 142.218 100.133C142.218 100.064 142.232 99.9946 142.26 99.9304L147.406 90.7954C147.442 90.731 147.491 90.6749 147.551 90.6312C147.61 90.5874 147.679 90.5569 147.751 90.5417C147.824 90.5286 147.899 90.5319 147.971 90.5511C148.043 90.5704 148.11 90.6053 148.167 90.6533C153.76 95.2817 177.501 103.767 177.734 103.848C177.796 103.868 177.853 103.899 177.902 103.941C177.951 103.983 177.992 104.034 178.021 104.092C178.05 104.15 178.068 104.212 178.073 104.277C178.077 104.341 178.069 104.406 178.049 104.467L175.765 111.897C175.744 112.008 175.687 112.108 175.602 112.182C175.517 112.255 175.41 112.298 175.298 112.303ZM143.427 99.9406C146.949 101.494 167.726 110.568 174.892 111.268L176.922 104.681C173.583 103.473 153.973 96.317 147.974 91.8409L143.427 99.9406Z" fill="#231F20"/>
<path d="M121.949 227.577C121.859 227.575 121.77 227.55 121.691 227.504C121.613 227.457 121.548 227.392 121.503 227.313C121.44 227.195 121.425 227.058 121.461 226.929C121.496 226.8 121.581 226.691 121.696 226.623C121.797 226.572 131.978 220.918 140.422 226.623C140.534 226.697 140.611 226.812 140.638 226.944C140.664 227.075 140.638 227.211 140.565 227.323C140.485 227.431 140.367 227.505 140.235 227.53C140.103 227.554 139.967 227.528 139.854 227.455C131.917 222.065 122.295 227.455 122.193 227.455C122.124 227.517 122.04 227.559 121.949 227.577Z" fill="#231F20"/>
<path d="M169.857 222.045C169.733 222.044 169.614 221.997 169.523 221.913C169.43 221.818 169.377 221.691 169.377 221.558C169.377 221.425 169.43 221.298 169.523 221.203C176.973 212.9 196.481 207.744 197.303 207.521C197.433 207.489 197.571 207.51 197.686 207.578C197.802 207.646 197.886 207.757 197.922 207.886C197.939 207.951 197.943 208.018 197.934 208.084C197.924 208.15 197.902 208.214 197.868 208.271C197.834 208.329 197.789 208.379 197.736 208.419C197.682 208.459 197.622 208.489 197.557 208.505C197.364 208.505 177.521 213.803 170.284 221.883C170.23 221.941 170.163 221.985 170.089 222.013C170.016 222.042 169.936 222.052 169.857 222.045V222.045Z" fill="#231F20"/>
<path d="M166.153 242.305C166.153 242.305 162.427 233.17 171.867 227.08C181.306 220.99 207.27 207.033 212.284 209.571C216.507 211.712 217.359 216.29 215.948 220.563C214.403 224.691 211.739 228.308 208.255 231.008C201.505 236.539 192.756 240.599 184.463 243.188C180.677 244.335 168.477 248.049 166.153 242.305Z" fill="#231F20"/>
<path d="M172.699 245.918C168.954 245.918 166.609 244.771 165.676 242.497C165.523 242.101 161.961 232.865 171.593 226.643C180.728 220.736 207.118 206.394 212.518 209.114C216.578 211.144 218.121 215.732 216.436 220.705C214.863 224.921 212.15 228.618 208.6 231.383C202.51 236.387 193.994 240.741 184.646 243.644C180.793 244.97 176.77 245.736 172.699 245.918V245.918ZM166.609 242.122C167.624 244.568 171.481 246.659 184.301 242.68C193.537 239.808 201.921 235.524 207.92 230.601C211.343 227.954 213.958 224.404 215.472 220.35C216.994 215.864 215.654 211.804 212.061 209.977C207.656 207.744 183.367 220.188 172.141 227.455C163.209 233.261 166.467 241.746 166.62 242.122H166.609Z" fill="#231F20"/>
<path d="M170.324 44.1156C170.324 44.1156 177.186 36.1783 177.581 37.1527C177.977 38.1271 218.273 48.8151 219.044 48.1756C219.816 47.5362 223.023 56.7016 223.023 56.7016C223.023 56.7016 194.004 70.3432 170.324 44.1156Z" fill="#282A36"/>
<path d="M204.966 60.6905C194.695 60.6905 181.621 57.3918 169.949 44.4505C169.868 44.3596 169.824 44.2422 169.824 44.1207C169.824 43.9991 169.868 43.8818 169.949 43.7908C174.212 38.8579 176.78 36.432 177.572 36.5741C177.654 36.5861 177.734 36.6147 177.806 36.6583C177.877 36.702 177.939 36.7596 177.988 36.8279C180.18 38.1677 215.989 47.6985 218.821 47.6985C218.968 47.6432 219.131 47.6432 219.278 47.6985C220.293 47.9726 222.11 52.672 223.46 56.5696C223.505 56.6872 223.504 56.8175 223.457 56.9343C223.41 57.0511 223.32 57.1457 223.206 57.1989C217.414 59.5482 211.216 60.7346 204.966 60.6905V60.6905ZM171.045 44.1054C192.553 67.6331 218.75 57.95 222.384 56.4275C221.196 53.0476 219.684 49.3225 219.075 48.6831C218.527 48.744 216.882 48.5004 210.63 46.9779C210.315 46.9068 180.82 39.5176 177.419 37.5891C176.628 37.9545 173.643 41.0706 171.045 44.1054ZM177.135 37.3455C177.158 37.3966 177.191 37.4421 177.233 37.4789C177.275 37.5157 177.325 37.5429 177.379 37.5587C177.281 37.509 177.197 37.4357 177.135 37.3455V37.3455Z" fill="#231F20"/>
<path d="M137.124 80.0669C137.025 80.0655 136.928 80.035 136.846 79.9791C136.764 79.9232 136.7 79.8445 136.662 79.7526C136.624 79.6608 136.614 79.5599 136.633 79.4623C136.652 79.3648 136.699 79.2751 136.769 79.2041C141.559 74.4945 143.874 69.3586 143.579 63.9791C143.48 61.6161 142.841 59.3072 141.712 57.2294C141.64 57.115 141.617 56.9769 141.648 56.8456C141.678 56.7142 141.76 56.6004 141.874 56.529C141.989 56.4577 142.127 56.4347 142.258 56.4652C142.389 56.4956 142.503 56.577 142.574 56.6914C142.646 56.8031 149.476 68.1508 137.499 79.9552C137.449 79.9999 137.389 80.0331 137.324 80.0523C137.259 80.0716 137.191 80.0766 137.124 80.0669V80.0669Z" fill="#231F20"/>
<path d="M143.64 44.9276C143.64 44.9276 136.677 43.4964 132.678 51.2104Z" fill="#231f20"/>
<path d="M132.709 51.7179C132.632 51.7312 132.553 51.7312 132.475 51.7179C132.358 51.6553 132.269 51.5489 132.229 51.4216C132.189 51.2943 132.201 51.1565 132.262 51.0379C136.393 43.0701 143.691 44.4708 143.772 44.481C143.907 44.5079 144.025 44.5872 144.101 44.7014C144.178 44.8156 144.205 44.9554 144.178 45.09C144.151 45.2246 144.072 45.343 143.958 45.4191C143.844 45.4952 143.704 45.5229 143.569 45.496C143.295 45.4351 136.931 44.2475 133.155 51.5149C133.105 51.5845 133.037 51.6397 132.959 51.6753C132.881 51.7109 132.794 51.7256 132.709 51.7179Z" fill="#231F20"/>
<path d="M273.306 91.4958C273.306 91.4958 277.6 96.6825 270.17 103.513Z" fill="#231f20"/>
<path d="M270.17 104.021C270.101 104.02 270.033 104.005 269.97 103.977C269.908 103.949 269.851 103.909 269.804 103.859C269.757 103.811 269.719 103.755 269.693 103.693C269.668 103.632 269.654 103.565 269.654 103.498C269.654 103.431 269.668 103.365 269.693 103.303C269.719 103.241 269.757 103.185 269.804 103.138C276.798 96.7129 272.931 91.8612 272.849 91.8105C272.807 91.7598 272.776 91.7014 272.756 91.6385C272.737 91.5757 272.73 91.5096 272.736 91.4441C272.742 91.3786 272.761 91.3149 272.792 91.2567C272.823 91.1986 272.865 91.147 272.915 91.105C272.966 91.0631 273.024 91.0314 273.087 91.012C273.15 90.9926 273.216 90.9858 273.282 90.9919C273.347 90.998 273.411 91.017 273.469 91.0477C273.527 91.0785 273.579 91.1204 273.621 91.171C273.672 91.171 278.138 96.8144 270.444 103.889C270.366 103.957 270.272 104.003 270.17 104.021Z" fill="#231F20"/>
<path d="M193.812 106.152L175.917 101.443L171.776 112.445L189.63 118.16L193.812 106.152Z" fill="#231F20"/>
<path d="M189.64 118.667C189.586 118.677 189.531 118.677 189.477 118.667L171.624 112.953C171.558 112.932 171.497 112.899 171.445 112.854C171.393 112.809 171.35 112.754 171.32 112.693C171.289 112.631 171.272 112.564 171.268 112.495C171.265 112.426 171.275 112.358 171.299 112.293L175.44 101.291C175.486 101.173 175.573 101.077 175.686 101.021C175.798 100.965 175.928 100.952 176.049 100.986L193.943 105.655C194.01 105.672 194.072 105.702 194.126 105.744C194.18 105.786 194.225 105.839 194.258 105.899C194.308 106.029 194.308 106.174 194.258 106.305L190.086 118.312C190.055 118.409 189.996 118.494 189.917 118.557C189.837 118.62 189.741 118.659 189.64 118.667V118.667ZM172.436 112.121L189.315 117.531L193.152 106.498L176.232 102.042L172.436 112.121Z" fill="#231F20"/>
<path d="M168.629 135.943C168.629 135.943 175.298 144.347 185.966 140.642Z" fill="#231f20"/>
<path d="M180.637 142.083C178.279 142.022 175.96 141.472 173.825 140.469C171.69 139.467 169.786 138.032 168.233 136.257C168.191 136.206 168.159 136.146 168.141 136.082C168.122 136.018 168.116 135.951 168.123 135.885C168.131 135.818 168.152 135.754 168.185 135.696C168.217 135.638 168.262 135.587 168.315 135.547C168.366 135.506 168.425 135.476 168.488 135.458C168.551 135.44 168.617 135.434 168.682 135.442C168.747 135.449 168.81 135.47 168.867 135.502C168.924 135.534 168.974 135.576 169.015 135.628C171.015 138.006 173.694 139.715 176.693 140.526C179.692 141.337 182.867 141.211 185.793 140.165C185.921 140.123 186.06 140.132 186.182 140.19C186.303 140.249 186.397 140.353 186.443 140.48C186.485 140.606 186.475 140.744 186.416 140.864C186.357 140.984 186.254 141.075 186.128 141.119C184.364 141.745 182.508 142.071 180.637 142.083V142.083Z" fill="#231F20"/>
<path d="M136.626 178.43C133.284 178.524 129.973 177.777 126.994 176.258C124.629 175.096 122.698 173.207 121.483 170.869C121.436 170.746 121.439 170.61 121.491 170.489C121.542 170.369 121.638 170.273 121.759 170.222C121.88 170.17 122.016 170.168 122.138 170.215C122.261 170.262 122.361 170.354 122.416 170.473C122.619 170.94 127.725 181.963 148.492 175.335C148.557 175.308 148.627 175.295 148.697 175.296C148.767 175.298 148.837 175.314 148.9 175.344C148.964 175.373 149.021 175.416 149.067 175.469C149.114 175.522 149.149 175.584 149.17 175.651C149.191 175.718 149.198 175.789 149.19 175.859C149.183 175.929 149.161 175.996 149.126 176.057C149.09 176.118 149.043 176.171 148.986 176.213C148.93 176.254 148.865 176.284 148.796 176.299C144.873 177.631 140.768 178.35 136.626 178.43V178.43Z" fill="#231f20"/>
<path d="M216.72 165.459C216.658 165.46 216.597 165.449 216.54 165.426C216.482 165.404 216.43 165.37 216.385 165.327C201.16 151.513 186.9 162.586 186.301 163.063C186.249 163.105 186.189 163.137 186.125 163.156C186.061 163.174 185.994 163.181 185.927 163.173C185.861 163.166 185.796 163.146 185.738 163.114C185.679 163.082 185.627 163.039 185.585 162.987C185.543 162.935 185.512 162.875 185.493 162.811C185.474 162.747 185.468 162.68 185.475 162.614C185.482 162.547 185.502 162.483 185.534 162.424C185.566 162.365 185.609 162.314 185.661 162.272C185.824 162.15 201.181 150.163 217.065 164.576C217.113 164.623 217.151 164.679 217.176 164.741C217.202 164.803 217.216 164.869 217.216 164.936C217.216 165.003 217.202 165.069 217.176 165.131C217.151 165.193 217.113 165.249 217.065 165.296C217.021 165.345 216.968 165.384 216.909 165.412C216.85 165.44 216.786 165.456 216.72 165.459V165.459Z" fill="#231f20"/>
<path d="M248.835 86.0756C248.835 86.0756 240.613 83.7919 235.883 94.4595Z" fill="#231f20"/>
<path d="M235.883 94.9671C235.813 94.9816 235.741 94.9816 235.67 94.9671C235.548 94.9117 235.453 94.8101 235.405 94.6845C235.357 94.559 235.362 94.4197 235.416 94.2972C240.278 83.3555 248.885 85.6088 248.967 85.6291C249.096 85.6669 249.206 85.7539 249.272 85.8715C249.339 85.989 249.356 86.1279 249.322 86.2584C249.284 86.3853 249.198 86.4925 249.083 86.5569C248.967 86.6214 248.831 86.6381 248.703 86.6035C248.378 86.5223 240.837 84.5735 236.34 94.7235C236.294 94.8021 236.226 94.8664 236.146 94.9094C236.065 94.9524 235.975 94.9723 235.883 94.9671V94.9671Z" fill="#231F20"/>
<path d="M143.64 84.8374C143.64 84.8374 157.546 80.4222 163.26 77.5396Z" fill="white"/>
<path d="M143.64 85.3551C143.505 85.3753 143.368 85.3411 143.259 85.2602C143.149 85.1793 143.077 85.0583 143.056 84.9237C143.036 84.7891 143.07 84.652 143.151 84.5425C143.232 84.4331 143.353 84.3603 143.488 84.3401C143.62 84.3401 157.414 79.9147 163.027 77.0727C163.146 77.0125 163.285 77.0022 163.413 77.044C163.54 77.0858 163.646 77.1764 163.707 77.296C163.738 77.355 163.757 77.4198 163.762 77.4864C163.768 77.5529 163.76 77.6199 163.739 77.6834C163.719 77.7469 163.685 77.8055 163.641 77.8558C163.597 77.906 163.543 77.9469 163.483 77.976C157.799 80.8485 144.361 85.1318 143.792 85.3043C143.745 85.3312 143.694 85.3484 143.64 85.3551Z" fill="#231F20"/>
<path d="M214.162 104.021H214.02C213.891 103.983 213.782 103.896 213.717 103.778C213.653 103.66 213.637 103.521 213.675 103.392L222.536 73.1751C222.555 73.1084 222.586 73.0461 222.629 72.9917C222.672 72.9373 222.725 72.8918 222.785 72.8578C222.845 72.8239 222.912 72.8022 222.981 72.7939C223.049 72.7857 223.119 72.791 223.186 72.8097C223.252 72.8283 223.315 72.8599 223.369 72.9027C223.423 72.9454 223.469 72.9985 223.503 73.0588C223.537 73.1191 223.559 73.1855 223.567 73.2543C223.575 73.323 223.57 73.3926 223.551 73.4593L214.69 103.625C214.662 103.742 214.594 103.846 214.497 103.918C214.401 103.99 214.283 104.027 214.162 104.021V104.021Z" fill="#231F20"/>
<path d="M231.052 32.1487C230.998 32.5682 230.937 32.9742 230.869 33.3667C230.559 35.4179 229.766 37.3661 228.555 39.0507C227.377 40.5732 224.931 42.5829 222.82 42.0957C221.003 41.6998 220.607 39.5074 220.222 37.9748C219.602 35.2266 219.577 32.3778 220.148 29.6191C220.719 26.8604 221.872 24.2554 223.531 21.9784C225.378 19.4003 228.108 18.7507 229.712 21.9784C231.153 24.8204 231.437 28.8398 231.052 32.1487Z" fill="#231f20"/>
<path d="M223.46 42.725C223.207 42.7276 222.955 42.7004 222.709 42.6438C220.679 42.2175 220.212 40.086 219.826 38.5229L219.735 38.1575C219.085 35.3347 219.05 32.4051 219.633 29.5679C220.217 26.7306 221.404 24.0521 223.115 21.7145C224.282 20.0905 225.733 19.2176 227.174 19.3191C228.037 19.3902 229.255 19.8571 230.219 21.745C231.644 25.0369 232.122 28.6609 231.6 32.2096C231.546 32.6359 231.485 33.0521 231.417 33.4581C231.095 35.5887 230.267 37.611 229.002 39.3552C228.007 40.5935 225.764 42.725 223.46 42.725ZM226.911 20.395C226.294 20.4833 225.706 20.7124 225.192 21.0644C224.678 21.4164 224.252 21.882 223.947 22.425C222.323 24.6388 221.194 27.1754 220.635 29.8634C220.077 32.5513 220.102 35.3279 220.709 38.0053L220.81 38.3808C221.156 39.8221 221.562 41.4258 222.932 41.7506C224.81 42.1566 227.124 40.1977 228.149 38.868C229.315 37.2474 230.077 35.3718 230.372 33.3972C230.439 33.0115 230.5 32.6156 230.554 32.2096C231.043 28.8584 230.597 25.4375 229.265 22.3235C229.092 21.8458 228.797 21.4219 228.409 21.0941C228.02 20.7664 227.553 20.5463 227.053 20.4559L226.911 20.395Z" fill="#231F20"/>
<path d="M226.454 38.5127C223.823 44.3667 219.16 49.0691 213.329 51.7493C207.497 54.4296 200.892 54.9061 194.736 53.0907C188.58 51.2754 183.291 47.291 179.847 41.8754C176.403 36.4597 175.038 29.9797 176.004 23.635C176.971 17.2902 180.204 11.5106 185.104 7.36625C190.005 3.22185 196.241 0.993379 202.658 1.09344C209.075 1.1935 215.238 3.61531 220.007 7.91047C224.776 12.2056 227.827 18.0832 228.595 24.455C229.181 29.2486 228.44 34.111 226.454 38.5127Z" fill="#231f20"/>
<path d="M202.287 54.6513C196.874 54.6506 191.586 53.022 187.11 49.9773C182.634 46.9325 179.178 42.6122 177.189 37.5776C175.2 32.5429 174.772 27.0266 175.958 21.7451C177.145 16.4636 179.893 11.6611 183.844 7.96129C187.182 4.82822 191.261 2.59539 195.698 1.47279C200.136 0.350191 204.786 0.374699 209.212 1.54401C213.637 2.71333 217.693 4.98903 220.997 8.1571C224.301 11.3252 226.744 15.2815 228.098 19.6541C228.569 21.1926 228.908 22.7681 229.113 24.3637C229.976 31.4767 227.979 38.6411 223.562 44.2824C219.144 49.9237 212.668 53.5802 205.555 54.4483C204.471 54.5798 203.379 54.6476 202.287 54.6513ZM202.338 1.67844C195.723 1.67383 189.355 4.19319 184.535 8.72254C180.39 12.6212 177.635 17.7684 176.689 23.3791C175.648 29.6052 176.911 35.997 180.24 41.3598C183.57 46.7227 188.739 50.6895 194.78 52.5189C200.821 54.3482 207.322 53.9149 213.068 51.2999C218.813 48.6848 223.409 44.0671 225.997 38.3098V38.3098C227.953 33.9889 228.68 29.2128 228.098 24.5058C227.905 22.969 227.583 21.4513 227.134 19.9687C225.494 14.6728 222.203 10.0406 217.741 6.74963C213.279 3.45866 207.882 1.68162 202.338 1.67844Z" fill="#231F20"/>
<path d="M195.547 34.2396L191.924 43.74C191.924 43.74 192.939 50.6014 199.475 50.9364C201.428 51.0008 203.37 50.6308 205.163 49.8532C206.955 49.0756 208.552 47.9098 209.839 46.4399L215.137 28.7688C215.137 28.7688 211.392 24.9219 215.776 15.2591C215.776 15.2591 206.337 16.4771 197.679 12.5491C197.679 12.5491 193.243 22.7904 192.502 27.8654C191.761 32.9404 195.547 34.2396 195.547 34.2396Z" fill="#231f20"/>
<path d="M204.54 21.0649C204.54 21.0649 200.034 25.6933 200.673 26.7692C201.312 27.8451 203.718 27.6827 203.718 27.6827" fill="#231f20"/>
<path d="M226.454 38.5128C223.823 44.3922 219.138 49.1104 213.277 51.7835C207.417 54.4565 200.783 54.9011 194.618 53.0337C188.453 51.1664 183.181 47.1153 179.789 41.6396C176.397 36.1638 175.118 29.6391 176.191 23.2878C177.714 26.8505 187.163 38.3403 203.677 41.4868C215.299 43.7401 220.455 40.756 226.454 38.5128Z" fill="#282A36"/>
<path d="M202.257 54.6513C198.337 54.6454 194.467 53.7857 190.913 52.132C187.36 50.4784 184.21 48.0704 181.682 45.0757C179.154 42.081 177.309 38.5715 176.274 34.7912C175.24 31.011 175.042 27.0508 175.694 23.1863C175.714 23.0793 175.767 22.9815 175.846 22.9073C175.926 22.833 176.027 22.7861 176.135 22.7736C176.243 22.7611 176.352 22.7836 176.446 22.8378C176.54 22.892 176.615 22.975 176.658 23.0746C178.242 26.7692 187.6 37.8835 203.779 40.9691C213.878 42.8874 218.862 40.9691 224.15 38.8376C224.861 38.5534 225.561 38.2793 226.282 38.0154C226.373 37.9775 226.474 37.9689 226.57 37.9907C226.666 38.0125 226.754 38.0637 226.82 38.1372C226.89 38.21 226.936 38.3024 226.952 38.4021C226.969 38.5018 226.954 38.6042 226.911 38.6955C225.027 42.94 222.072 46.6214 218.334 49.378C214.597 52.1345 210.207 53.8714 205.596 54.4178C204.488 54.5614 203.373 54.6394 202.257 54.6513V54.6513ZM176.476 24.9016C176.264 26.8661 176.281 28.8484 176.526 30.8089C177.371 37.6437 180.892 43.8645 186.317 48.1075C191.741 52.3504 198.627 54.2693 205.464 53.4434C209.694 52.9454 213.735 51.4049 217.223 48.9602C220.711 46.5154 223.538 43.243 225.449 39.4364L224.526 39.8018C219.339 41.8318 213.97 43.9735 203.586 41.9942C188.706 39.1522 179.409 29.5909 176.476 24.9016Z" fill="#231F20"/>
<path d="M227.611 19.8165C222.81 15.8377 215.888 11.1383 208.681 9.74773C200.638 8.15377 192.413 7.68239 184.24 8.34703C187.514 5.27286 191.517 3.08192 195.871 1.98023C200.225 0.878542 204.787 0.902296 209.129 2.04927C213.472 3.19623 217.451 5.42873 220.693 8.53683C223.935 11.6449 226.333 15.5265 227.662 19.8165H227.611Z" fill="#282A36"/>
<path d="M227.611 20.324C227.494 20.3211 227.38 20.2821 227.286 20.2123C222.729 16.4264 215.786 11.6356 208.6 10.245C200.584 8.65047 192.385 8.18243 184.24 8.85445C184.136 8.8625 184.031 8.83867 183.94 8.78612C183.85 8.73356 183.777 8.65475 183.732 8.5601C183.689 8.46404 183.676 8.35667 183.696 8.25297C183.716 8.14926 183.768 8.05438 183.844 7.98155C187.181 4.84848 191.26 2.61566 195.698 1.49306C200.136 0.370453 204.786 0.394964 209.211 1.56428C213.637 2.73359 217.692 5.00929 220.996 8.17737C224.3 11.3454 226.744 15.3018 228.098 19.6744C228.128 19.7784 228.124 19.8892 228.088 19.9912C228.052 20.0932 227.984 20.1811 227.895 20.2428C227.809 20.294 227.711 20.322 227.611 20.324V20.324ZM191.345 7.53495C197.195 7.55071 203.03 8.11824 208.773 9.23C215.492 10.5292 221.968 14.6704 226.555 18.294C224.477 12.8885 220.65 8.3335 215.684 5.35388C210.718 2.37427 204.898 1.14122 199.15 1.85095C194.172 2.44255 189.476 4.47844 185.641 7.7075C187.508 7.59585 189.396 7.53495 191.345 7.53495Z" fill="#282A36"/>
<path d="M182.494 18.8725C182.849 17.8575 183.154 16.7613 183.408 15.6854C183.773 14.102 184.981 10.377 183.783 8.95598C182.961 7.94098 181.895 8.41802 181.114 9.24017C177.561 12.9855 175.968 17.7459 174.912 22.6991C174.648 23.8968 174.191 27.1752 175.836 27.703C177.815 28.3526 180.007 24.5159 180.687 23.1863C181.391 21.7932 181.995 20.3516 182.494 18.8725Z" fill="#231f20"/>
<path d="M176.303 28.2918C176.092 28.2937 175.883 28.2594 175.684 28.1903C173.542 27.5001 174.171 23.7344 174.415 22.5976C175.43 18.1012 176.881 12.9653 180.749 8.89513C180.997 8.59368 181.307 8.34765 181.656 8.17284C182.006 7.99803 182.388 7.89833 182.779 7.88013C183.053 7.89661 183.32 7.97119 183.564 8.09893C183.807 8.22668 184.02 8.40465 184.189 8.62108C185.387 10.0421 184.616 13.0363 184.108 15.0257C184.037 15.3099 183.966 15.5637 183.915 15.787C183.663 16.8814 183.355 17.9621 182.992 19.0248C182.48 20.5394 181.859 22.015 181.134 23.4401C180.353 24.9524 178.414 28.2918 176.303 28.2918ZM182.697 8.90528C182.219 8.96715 181.783 9.21065 181.479 9.58533C177.785 13.4829 176.333 18.4564 175.389 22.7803C174.983 24.6885 174.994 26.8911 175.978 27.2057C177.216 27.6117 179.023 25.3483 180.221 22.9326C180.916 21.5622 181.513 20.1445 182.007 18.6899V18.6899C182.362 17.658 182.66 16.6076 182.9 15.5434C182.961 15.3201 183.022 15.0562 183.103 14.7618C183.499 13.1987 184.25 10.2857 183.388 9.26053C183.309 9.15128 183.208 9.06089 183.09 8.99592C182.972 8.93095 182.842 8.89305 182.708 8.88498L182.697 8.90528Z" fill="#231F20"/>
<path d="M171.776 88.4609C171.776 88.4609 158.124 115.074 145.284 117.52C132.445 119.967 125.756 110.842 129.948 105.513C134.14 100.184 141.793 100.113 141.762 100.113C141.732 100.113 142.716 99.9812 142.716 98.4282V96.114C142.716 96.114 129.278 97.2305 125.675 104.66C121.939 112.354 129.146 121.651 140.615 121.662C162.945 121.662 175.826 89.5876 175.826 89.5876" fill="#282A36"/>
<path d="M175.745 62.2942L168.203 88.7552L205.017 99.027L212.833 71.3277L175.745 62.2942Z" fill="#282A36"/>
<path d="M205.017 99.565H204.885L168.071 89.2932C168.007 89.2775 167.947 89.2487 167.894 89.2085C167.842 89.1683 167.798 89.1177 167.767 89.0598C167.7 88.9427 167.682 88.8044 167.716 88.6741L175.267 62.2029C175.301 62.0771 175.382 61.9694 175.494 61.903C175.606 61.8366 175.74 61.8167 175.866 61.8476L212.954 70.8811C213.087 70.9191 213.199 71.0063 213.269 71.1247C213.305 71.1816 213.328 71.2455 213.337 71.312C213.345 71.3786 213.34 71.4463 213.32 71.5104L205.555 99.159C205.533 99.2819 205.465 99.3918 205.365 99.467C205.266 99.5423 205.141 99.5772 205.017 99.565V99.565ZM168.832 88.4L204.672 98.3876L212.203 71.683L176.12 62.8931L168.832 88.4Z" fill="#231F20"/>
<path d="M183.519 82.3304C187.09 82.3304 189.985 79.4357 189.985 75.8648C189.985 72.294 187.09 69.3993 183.519 69.3993C179.948 69.3993 177.054 72.294 177.054 75.8648C177.054 79.4357 179.948 82.3304 183.519 82.3304Z" fill="#282A36"/>
<path d="M202.764 82.3303C204.552 82.3303 206.002 80.8807 206.002 79.0925C206.002 77.3043 204.552 75.8546 202.764 75.8546C200.976 75.8546 199.526 77.3043 199.526 79.0925C199.526 80.8807 200.976 82.3303 202.764 82.3303Z" fill="#282A36"/>
<path d="M200.947 92.8763H200.805L183.388 88.1666C183.258 88.1288 183.148 88.0418 183.082 87.9242C183.016 87.8067 182.998 87.6679 183.032 87.5373C183.068 87.4085 183.153 87.299 183.269 87.2325C183.385 87.166 183.522 87.1479 183.652 87.1821L201.079 91.9018C201.214 91.9193 201.336 91.9896 201.419 92.0971C201.501 92.2047 201.538 92.3407 201.521 92.4753C201.503 92.6099 201.433 92.7321 201.325 92.8149C201.218 92.8977 201.082 92.9343 200.947 92.9168V92.8763Z" fill="#231f20"/>
<path d="M223.023 106.843C223.023 106.843 225.51 106.081 225.459 108.081C225.409 110.081 221.592 124.372 221.592 124.372H216.72L223.023 106.843Z" fill="#282A36"/>
<path d="M166.366 14.7821C166.366 14.7821 166.975 12.0619 168.203 12.0619C169.431 12.0619 175.826 13.422 175.826 13.422L174.648 17.0658L166.366 14.7821Z" fill="#282A36"/>
<path d="M191.345 117.703C191.295 117.713 191.243 117.713 191.193 117.703C191.129 117.685 191.069 117.653 191.018 117.611C190.966 117.57 190.924 117.518 190.892 117.459C190.861 117.4 190.842 117.336 190.836 117.27C190.83 117.204 190.837 117.137 190.858 117.074L193.355 109.299C193.374 109.236 193.406 109.178 193.448 109.127C193.491 109.077 193.543 109.035 193.601 109.005C193.66 108.975 193.724 108.956 193.789 108.951C193.855 108.946 193.921 108.954 193.984 108.974C194.112 109.016 194.218 109.107 194.279 109.227C194.339 109.346 194.35 109.486 194.309 109.614L191.822 117.378C191.785 117.474 191.719 117.557 191.634 117.615C191.549 117.673 191.448 117.704 191.345 117.703Z" fill="#231f20"/>
<path d="M171.42 111.075C171.357 111.089 171.291 111.089 171.228 111.075C171.104 111.023 171.006 110.925 170.955 110.802C170.904 110.678 170.903 110.539 170.954 110.415L173.999 103.067C174.052 102.945 174.151 102.849 174.274 102.798C174.396 102.747 174.534 102.745 174.658 102.793C174.72 102.817 174.777 102.854 174.824 102.901C174.872 102.947 174.909 103.003 174.935 103.065C174.961 103.126 174.974 103.192 174.973 103.259C174.973 103.325 174.959 103.391 174.932 103.452L171.887 110.801C171.843 110.886 171.776 110.957 171.694 111.006C171.611 111.054 171.516 111.078 171.42 111.075Z" fill="#231f20"/>
<path d="M54.9088 160.901C75.0836 160.901 91.4386 144.547 91.4386 124.372C91.4386 104.197 75.0836 87.8418 54.9088 87.8418C34.7339 87.8418 18.3789 104.197 18.3789 124.372C18.3789 144.547 34.7339 160.901 54.9088 160.901Z" fill="#231f20"/>
<path d="M54.9288 161.419C46.0468 161.429 37.4572 158.246 30.7258 152.451C23.9945 146.656 19.5697 138.635 18.2582 129.851C16.9466 121.066 18.8356 112.103 23.5809 104.595C28.3261 97.0863 35.6115 91.5334 44.1089 88.9481C53.5052 86.0848 63.6539 87.0702 72.3238 91.6878C80.9936 96.3053 87.4748 104.177 90.3422 113.572V113.572C92.0291 119.108 92.3958 124.961 91.4129 130.664C90.43 136.367 88.1248 141.76 84.6821 146.412C81.2394 151.063 76.7549 154.843 71.5881 157.45C66.4212 160.056 60.7157 161.415 54.9288 161.419V161.419ZM54.9288 88.3391C49.7466 88.3329 44.624 89.4446 39.9105 91.5984C35.197 93.7521 31.0036 96.8972 27.6163 100.819C24.2289 104.741 21.7274 109.348 20.2824 114.324C18.8374 119.301 18.4828 124.531 19.243 129.657C20.0031 134.783 21.8601 139.685 24.6871 144.028C27.5141 148.371 31.2448 152.054 35.6244 154.824C40.0041 157.594 44.9298 159.387 50.0655 160.08C55.2011 160.773 60.4259 160.351 65.3833 158.841C69.9095 157.463 74.1198 155.206 77.7736 152.2C81.4273 149.195 84.4529 145.498 86.6775 141.322C88.902 137.147 90.2819 132.573 90.7383 127.864C91.1947 123.155 90.7187 118.402 89.3373 113.877V113.877C87.0822 106.503 82.5247 100.045 76.3328 95.4493C70.1408 90.8537 62.6398 88.3619 54.9288 88.3391V88.3391Z" fill="#231f20"/>
<path d="M22.0634 148.854C9.96457 148.854 2.29117 146.032 0.748366 140.896C-1.03803 135.06 5.39706 127.315 18.3891 119.632C18.5062 119.563 18.6457 119.544 18.7771 119.578C18.9084 119.612 19.0208 119.697 19.0894 119.814C19.1581 119.931 19.1774 120.071 19.1431 120.202C19.1088 120.334 19.0238 120.446 18.9067 120.515C6.53387 127.823 0.108913 135.334 1.71261 140.602C3.31631 145.869 12.8776 148.519 27.1891 147.707C38.3744 146.889 49.4272 144.778 60.1259 141.414C70.8804 138.223 81.2282 133.795 90.9616 128.219C103.324 120.911 109.749 113.4 108.146 108.132C106.542 102.864 96.9805 100.215 82.669 101.027C82.6026 101.032 82.5357 101.024 82.4725 101.003C82.4093 100.981 82.3511 100.947 82.3017 100.903C82.2522 100.858 82.2124 100.804 82.1848 100.743C82.1572 100.682 82.1424 100.616 82.1412 100.55C82.1371 100.483 82.1462 100.416 82.1679 100.353C82.1897 100.29 82.2237 100.232 82.268 100.182C82.3124 100.132 82.3661 100.091 82.4262 100.062C82.4863 100.033 82.5516 100.016 82.6183 100.012C97.6809 99.1388 107.334 101.981 109.12 107.817C110.906 113.653 104.461 121.398 91.4792 129.071C81.6731 134.659 71.25 139.088 60.4202 142.266C49.6463 145.658 38.515 147.786 27.25 148.61C25.4332 148.803 23.7077 148.854 22.0634 148.854Z" fill="#282A36"/>
<path d="M30.0313 104.833C29.917 104.831 29.8063 104.792 29.7166 104.721C29.6121 104.638 29.5449 104.516 29.5297 104.383C29.5144 104.25 29.5525 104.116 29.6355 104.011C30.6753 102.705 31.8914 101.551 33.2488 100.58C33.3587 100.503 33.4941 100.472 33.6267 100.492C33.7592 100.513 33.8785 100.585 33.9594 100.692C33.9983 100.746 34.026 100.808 34.041 100.873C34.056 100.939 34.0578 101.006 34.0465 101.072C34.0352 101.138 34.0109 101.202 33.975 101.258C33.9392 101.315 33.8924 101.364 33.8376 101.402C32.5594 102.322 31.4122 103.411 30.4272 104.64C30.3804 104.7 30.3204 104.749 30.2517 104.783C30.1831 104.816 30.1077 104.833 30.0313 104.833V104.833Z" fill="#282A36"/>
<path d="M30.0919 112.983H29.9701C29.9054 112.967 29.8445 112.938 29.7911 112.897C29.7377 112.857 29.6928 112.807 29.6588 112.75C29.6249 112.692 29.6026 112.628 29.5933 112.562C29.584 112.496 29.5879 112.429 29.6047 112.364C29.983 110.936 30.6344 109.596 31.523 108.416C31.6071 108.31 31.7289 108.24 31.863 108.221C31.9972 108.202 32.1335 108.235 32.2437 108.314C32.3498 108.397 32.419 108.518 32.4361 108.651C32.4532 108.784 32.4169 108.918 32.335 109.025C31.5258 110.098 30.9328 111.318 30.5892 112.618C30.558 112.725 30.4924 112.819 30.4025 112.885C30.3126 112.951 30.2034 112.986 30.0919 112.983Z" fill="#282A36"/>
<path d="M24.3266 117.206C24.273 117.216 24.2179 117.216 24.1642 117.206C24.0375 117.16 23.9338 117.066 23.875 116.945C23.8163 116.824 23.8071 116.684 23.8496 116.556L24.7631 113.877C24.8075 113.749 24.9009 113.644 25.0227 113.585C25.1445 113.526 25.2848 113.518 25.4127 113.562C25.5406 113.606 25.6455 113.7 25.7045 113.822C25.7636 113.943 25.7718 114.084 25.7273 114.212L24.8138 116.891C24.7722 116.985 24.7039 117.065 24.6173 117.121C24.5307 117.177 24.4297 117.207 24.3266 117.206V117.206Z" fill="#282A36"/>
<path d="M284.542 210.921C299.538 210.921 311.694 198.765 311.694 183.769C311.694 168.774 299.538 156.618 284.542 156.618C269.547 156.618 257.391 168.774 257.391 183.769C257.391 198.765 269.547 210.921 284.542 210.921Z" fill="#231f20"/>
<path d="M284.542 211.428C279.07 211.43 273.72 209.809 269.169 206.769C264.618 203.729 261.072 199.408 258.978 194.352C256.884 189.295 256.337 183.732 257.407 178.365C258.476 172.998 261.114 168.068 264.985 164.201C268.857 160.333 273.789 157.701 279.158 156.638C284.526 155.574 290.089 156.127 295.143 158.227C300.196 160.326 304.514 163.877 307.549 168.431C310.583 172.985 312.199 178.337 312.191 183.81C312.172 191.134 309.252 198.153 304.07 203.329C298.888 208.505 291.867 211.417 284.542 211.428ZM284.542 157.126C279.274 157.124 274.123 158.684 269.741 161.608C265.359 164.533 261.943 168.691 259.923 173.557C257.904 178.423 257.373 183.778 258.396 188.946C259.42 194.114 261.953 198.863 265.674 202.591C269.396 206.32 274.14 208.862 279.306 209.895C284.472 210.929 289.828 210.408 294.698 208.398C299.568 206.387 303.732 202.979 306.665 198.602C309.598 194.226 311.168 189.078 311.176 183.81C311.179 176.741 308.375 169.96 303.381 164.956C298.387 159.953 291.612 157.136 284.542 157.126V157.126Z" fill="#282A36"/>
<path d="M306.761 183.932C306.676 183.931 306.592 183.91 306.517 183.871C306.458 183.839 306.406 183.796 306.364 183.744C306.322 183.692 306.291 183.632 306.272 183.568C306.253 183.504 306.247 183.437 306.254 183.37C306.262 183.304 306.282 183.239 306.314 183.181C306.886 182.086 307.01 180.812 306.659 179.628C306.639 179.561 306.632 179.492 306.639 179.422C306.647 179.353 306.667 179.286 306.7 179.225C306.733 179.163 306.778 179.109 306.832 179.065C306.886 179.021 306.948 178.988 307.014 178.968C307.081 178.948 307.151 178.942 307.22 178.949C307.289 178.956 307.357 178.976 307.418 179.009C307.479 179.042 307.533 179.087 307.577 179.141C307.621 179.195 307.654 179.257 307.674 179.324C308.111 180.771 307.958 182.333 307.248 183.668C307.2 183.753 307.129 183.824 307.042 183.87C306.956 183.917 306.858 183.938 306.761 183.932V183.932Z" fill="#282A36"/>
<path d="M306.446 191.016H306.284C306.221 190.996 306.162 190.963 306.112 190.919C306.062 190.876 306.021 190.823 305.992 190.763C305.962 190.704 305.945 190.639 305.941 190.572C305.937 190.506 305.947 190.44 305.969 190.377C306.307 189.377 306.505 188.335 306.558 187.281C306.56 187.214 306.576 187.148 306.605 187.087C306.634 187.027 306.675 186.972 306.725 186.928C306.775 186.883 306.834 186.849 306.898 186.828C306.961 186.807 307.029 186.799 307.096 186.804C307.162 186.807 307.227 186.823 307.287 186.851C307.347 186.879 307.401 186.918 307.445 186.968C307.49 187.017 307.524 187.074 307.546 187.137C307.568 187.2 307.577 187.266 307.573 187.332C307.513 188.479 307.298 189.613 306.933 190.702C306.894 190.798 306.826 190.879 306.739 190.936C306.652 190.992 306.55 191.02 306.446 191.016V191.016Z" fill="#282A36"/>
<path d="M300.965 193.879C300.872 193.881 300.78 193.856 300.701 193.808C300.588 193.738 300.506 193.627 300.474 193.498C300.441 193.369 300.461 193.232 300.529 193.118C301.138 192.097 301.654 191.023 302.071 189.91C302.094 189.848 302.129 189.79 302.174 189.741C302.219 189.693 302.273 189.653 302.334 189.626C302.395 189.598 302.46 189.583 302.526 189.582C302.593 189.58 302.659 189.592 302.721 189.616C302.847 189.662 302.951 189.756 303.008 189.878C303.065 190 303.071 190.139 303.025 190.266C302.587 191.436 302.044 192.564 301.401 193.635C301.357 193.711 301.293 193.773 301.216 193.816C301.139 193.859 301.053 193.88 300.965 193.879V193.879Z" fill="#282A36"/>
<path d="M74.2242 56.9351L75.9396 63.7863L82.801 65.5017L75.9396 67.2272L74.2242 74.0784L72.4987 67.2272L65.6475 65.5017L72.4987 63.7863L74.2242 56.9351Z" fill="#282A36"/>
<path d="M244.45 201.248L245.81 206.658L251.22 208.018L245.81 209.368L244.45 214.778L243.1 209.368L237.69 208.018L243.1 206.658L244.45 201.248Z" fill="#282A36"/>
<path d="M271.165 44.826L271.834 47.526L274.544 48.206L271.834 48.886L271.165 51.586L270.484 48.886L267.774 48.206L270.484 47.526L271.165 44.826Z" fill="#282A36"/>
<path d="M45.0937 183.242L45.7636 185.952L48.4737 186.632L45.7636 187.302L45.0937 190.012L44.4137 187.302L41.7036 186.632L44.4137 185.952L45.0937 183.242Z" fill="#282A36"/>
<path d="M33.543 37.7109L34.2231 40.421L36.923 41.101L34.2231 41.7709L33.543 44.481L32.863 41.7709L30.1631 41.101L32.863 40.421L33.543 37.7109Z" fill="#282A36"/>
<path d="M102.056 44.6332L102.847 47.8L106.004 48.5917L102.847 49.3834L102.056 52.5502L101.254 49.3834L98.0972 48.5917L101.254 47.8L102.056 44.6332Z" fill="#282A36"/>
<path d="M255.168 141.586L255.97 144.743L259.127 145.544L255.97 146.336L255.168 149.493L254.376 146.336L251.22 145.544L254.376 144.743L255.168 141.586Z" fill="#282A36"/>
<path d="M82.8008 210.921C89.3314 210.921 94.6256 205.627 94.6256 199.096C94.6256 192.565 89.3314 187.271 82.8008 187.271C76.2702 187.271 70.9761 192.565 70.9761 199.096C70.9761 205.627 76.2702 210.921 82.8008 210.921Z" fill="#231f20"/>
<path d="M82.8009 211.428C80.3614 211.43 77.9761 210.709 75.9467 209.355C73.9173 208.001 72.3351 206.076 71.4002 203.822C70.4652 201.569 70.2195 199.089 70.6942 196.696C71.1689 194.303 72.3427 192.105 74.0669 190.379C75.7912 188.654 77.9886 187.478 80.3811 187.001C82.7736 186.525 85.2537 186.768 87.5077 187.701C89.7618 188.635 91.6884 190.215 93.0439 192.243C94.3995 194.272 95.123 196.656 95.123 199.096C95.1203 202.364 93.8216 205.498 91.5116 207.81C89.2016 210.121 86.069 211.423 82.8009 211.428V211.428ZM82.8009 187.789C80.5617 187.787 78.3722 188.449 76.5096 189.692C74.6469 190.935 73.1948 192.702 72.3369 194.77C71.4791 196.839 71.2541 199.115 71.6905 201.311C72.1268 203.508 73.2049 205.525 74.7883 207.109C76.3716 208.692 78.3891 209.77 80.5854 210.206C82.7816 210.643 85.058 210.418 87.1264 209.56C89.1947 208.702 90.9621 207.25 92.2049 205.387C93.4477 203.525 94.11 201.335 94.108 199.096C94.1026 196.099 92.9096 193.226 90.7903 191.107C88.671 188.987 85.7981 187.794 82.8009 187.789V187.789Z" fill="#231f20"/>
</svg>
